# xmcd
#
# Track frame offsets:
#	150
#	11807
#	22932
#	34295
#	44637
#	54987
#	67690
#	79287
#	90830
#
# Disc length: 1382 seconds
#
# Revision: 1
# Processed by: cddbd v1.5.2PL0 Copyright (c) Steve Scherf et al.
# Submitted via: audiograbber 1.83.01
#
DISCID=64056409
DTITLE=Patsy Cline - At Her Best
DYEAR=1995
DGENRE=Country
TTITLE0=Walkin' After Midnight
TTITLE1=Stop The World
TTITLE2=Just Out Of Reach
TTITLE3=Too Many Secrets
TTITLE4=Walking Dream
TTITLE5=Just A Closer Walk With Thee
TTITLE6=In Care Of The Blues
TTITLE7=I've Loved And Lost Again
TTITLE8=Life's Railway To Heaven
EXTD=
EXTT0=
EXTT1=
EXTT2=
EXTT3=
EXTT4=
EXTT5=
EXTT6=
EXTT7=
EXTT8=
PLAYORDER=
